# xmcd
#
# Track frame offsets: 
#        150
#        16687
#        34887
#        49358
#        60640
#        80227
#        95377
#        120243
#        137885
#        155057
#        170273
#        183197
#        197071
#        207017
#        224757
#        234815
#        246372
#        258724
#        270073
#        281662
#
# Disc length: 3949 seconds
#
# Revision: 1
# Processed by: cddbd v1.5.2PL0 Copyright (c) Steve Scherf et al.
# Submitted via: ExactAudioCopyFreeDBPlugin 1.0
#
DISCID=1d0f6b14
DTITLE=Nina Simone - 60 Essential Recordings
DYEAR=2016
DGENRE=Blues
TTITLE0=My Baby Just Cares for Me
TTITLE1=Nood Indingo
TTITLE2=Don't smoke in bed
TTITLE3=Mo Needs Me
TTITLE4=Little Girl Blue
TTITLE5=Love Me or Leave Me
TTITLE6=Good Bait
TTITLE7=Plain Gold Ring
TTITLE8=You'll Never Walk Alone
TTITLE9=Blue Prelude
TTITLE10=Children Go Where I Send You
TTITLE11=Tommorrow (We will meet once more)
TTITLE12=Stompin' at the Savoy
TTITLE13=It might As Well Be Spring
TTITLE14=You've been gone too long
TTITLE15=That's Him over There
TTITLE16=Chilly Winds Don't Blow
TTITLE17=Theme from"The Middle of the Night"
TTITLE18=Don't Get Out Of This Mood
TTITLE19=Willow Weep For Me
EXTD=
EXTT0=
EXTT1=
EXTT2=
EXTT3=
EXTT4=
EXTT5=
EXTT6=
EXTT7=
EXTT8=
EXTT9=
EXTT10=
EXTT11=
EXTT12=
EXTT13=
EXTT14=
EXTT15=
EXTT16=
EXTT17=
EXTT18=
EXTT19=
PLAYORDER=
